<?xml version="1.0" encoding="utf-8"?>
<!-- Generator: Adobe Illustrator 18.0.0, SVG Export Plug-In . SVG Version: 6.00 Build 0)  -->
<!DOCTYPE svg PUBLIC "-//W3C//DTD SVG 1.1//EN" "http://www.w3.org/Graphics/SVG/1.1/DTD/svg11.dtd">
<svg version="1.1" id="Layer_1" xmlns="http://www.w3.org/2000/svg" xmlns:xlink="http://www.w3.org/1999/xlink" x="0px" y="0px"
	 viewBox="0 0 256 256" enable-background="new 0 0 256 256" xml:space="preserve">
<path fill="#FFFFFF" d="M128,13C64.5,13,13,64.5,13,128s51.5,115,115,115s115-51.5,115-115S191.5,13,128,13z M128,228
	c-55.2,0-100-44.8-100-100C28,72.8,72.8,28,128,28s100,44.8,100,100C228,183.2,183.2,228,128,228z"/>
<path fill="#FFFFFF" d="M143.2,89.3c0-10.7-6.7-17.9-18.1-17.9c-9.2,0-16.6,4.5-23,11.6L87.7,69.8c9.6-11.4,22.8-19.5,39.2-19.5
	c24.2,0,41.4,12.8,41.4,37.2c0,28.4-34.9,38.5-31.8,67.4h-22.6C109.2,122.2,143.2,109.4,143.2,89.3z M125.3,170.7
	c9.4,0,16.8,7.4,16.8,17.5c0,10.1-7.4,17.5-16.8,17.5s-16.6-7.4-16.6-17.5C108.8,178.1,115.9,170.7,125.3,170.7z"/>
</svg>
